<svg
  xmlns="http://www.w3.org/2000/svg"
  xmlns:xlink="http://www.w3.org/1999/xlink"
  width="187"
  height="182"
>
  <defs><path id="a" d="M0 0h65.498v65.53H0z" /></defs>
  <g fill="none" fill-rule="evenodd">
    <path
      d="M93.5 162C53.48 162 21 129.52 21 89.5S53.48 17 93.5 17h54.375C157.88 17 166 25.12 166 35.125V89.5c0 16.058-5.229 30.901-14.076 42.92C138.722 150.355 117.462 162 93.5 162z"
      fill="#1F9999"
      fill-rule="nonzero"
    />
    <g transform="rotate(-140 76.826 65.187)">
      <ellipse fill="#fff" cx="40.151" cy="96.836" rx="11.558" ry="11.148" />
      <g transform="rotate(143 37.863 42.036)">
        <mask id="b" fill="#fff"><use xlink:href="#a" /></mask>
        <path
          d="M59.91 36.191c-8.61 0-16.077-3.035-22.198-9.02-6.124-5.988-9.227-13.296-9.224-21.721C28.49 2.44 30.986 0 34.064 0h.002c3.08 0 5.574 2.443 5.573 5.454-.003 5.503 1.946 10.085 5.958 14.006 4.009 3.92 8.691 5.827 14.313 5.827h.012c3.079 0 5.575 2.44 5.576 5.45.002 3.01-2.494 5.453-5.573 5.454h-.015zm-7.06 29.34a5.35 5.35 0 0 1-.252-.006c-14.779-.64-27.207-5.79-36.94-15.308-9.733-9.515-15-21.67-15.653-36.123C-.13 11.086 2.252 8.54 5.33 8.406c3.093-.097 5.68 2.198 5.817 5.206.533 11.809 4.589 21.26 12.397 28.895 7.808 7.636 17.474 11.602 29.548 12.125 3.077.132 5.46 2.68 5.324 5.688-.132 2.926-2.6 5.211-5.565 5.211z"
          fill="#fff"
          mask="url(#b)"
        />
      </g>
    </g>
  </g>
</svg>
