<svg height="400" viewBox="0 0 105.83333 105.83334" width="400" xmlns="http://www.w3.org/2000/svg" xmlns:xlink="http://www.w3.org/1999/xlink"><linearGradient id="a"><stop offset="0" stop-color="#a00"/><stop offset="1" stop-color="#ff9595"/></linearGradient><linearGradient id="b"><stop offset="0" stop-color="#a00"/><stop offset="1" stop-color="#f55"/></linearGradient><linearGradient id="c" gradientUnits="userSpaceOnUse" x1="85.53846668415" x2="104.51040968226" xlink:href="#a" y1="234.93794984018" y2="234.93794984018"/><linearGradient id="d" gradientTransform="matrix(.96474021 -.24838179 .24838179 .96474021 -62.325351 25.272693)" gradientUnits="userSpaceOnUse" x1="60.396301" x2="73.893196" xlink:href="#b" y1="249.92128" y2="249.92128"/><linearGradient id="e" gradientUnits="userSpaceOnUse" x1="65.0181328621" x2="85.53846668415" xlink:href="#a" y1="226.33180596642" y2="226.33180596642"/><linearGradient id="f" gradientUnits="userSpaceOnUse" x1="85.53846668415" x2="95.49667200627" xlink:href="#a" y1="224.62939742814" y2="224.62939742814"/><linearGradient id="g" gradientUnits="userSpaceOnUse" x1="84.91171355933" x2="84.3170042481" xlink:href="#a" y1="232.22058144991" y2="238.97179835412"/><linearGradient id="h" gradientUnits="userSpaceOnUse" x1="60.65995704209" x2="12.39258955994" xlink:href="#b" y1="222.51470098673" y2="228.66411263727"/><linearGradient id="i" gradientUnits="userSpaceOnUse" x1="85.53846668415" x2="104.51040968226" xlink:href="#a" y1="226.8294583658" y2="226.8294583658"/><linearGradient id="j" gradientUnits="userSpaceOnUse" x1="84.28492257886" x2="100.88884907145" xlink:href="#a" y1="252.16846807297" y2="238.75783422172"/><linearGradient id="k" gradientUnits="userSpaceOnUse" x1="85.10650479996" x2="80.17296191471" xlink:href="#a" y1="215.95862997085" y2="202.72171371625"/><linearGradient id="l" gradientUnits="userSpaceOnUse" x1="49.99713549529" x2="79.28448875575" xlink:href="#a" y1="208.62515328406" y2="208.62515328406"/><linearGradient id="m" gradientUnits="userSpaceOnUse" x1="26.81174580985" x2="69.35739878753" xlink:href="#a" y1="213.714397464" y2="213.714397464"/><linearGradient id="n" gradientUnits="userSpaceOnUse" x1="73.30412650218" x2="87.67935027123" xlink:href="#a" y1="220.043882476" y2="216.55365109311"/><linearGradient id="o" gradientUnits="userSpaceOnUse" x1="73.66703868011" x2="87.67935027123" xlink:href="#a" y1="224.62939742814" y2="224.62939742814"/><linearGradient id="p" gradientUnits="userSpaceOnUse" x1="64.63792961682" x2="85.53846668415" xlink:href="#a" y1="227.62972685838" y2="227.62972685838"/><linearGradient id="q" gradientUnits="userSpaceOnUse" x1="67.25375619663" x2="66.61564139507" xlink:href="#b" y1="214.11089557525" y2="231.98203106746"/><linearGradient id="r" gradientUnits="userSpaceOnUse" x1="61.37873227698" x2="15.21229971037" xlink:href="#b" y1="227.97103541318" y2="241.26247376931"/><linearGradient id="s" gradientUnits="userSpaceOnUse" x1="70.47912154141" x2="70.92398124485" xlink:href="#a" y1="231.0236156058" y2="234.88733284806"/><linearGradient id="t" gradientUnits="userSpaceOnUse" x1="48.51765490942" x2="73.06126256775" y1="248.0411160975" y2="248.0411160975"><stop offset="0" stop-color="#fca326"/><stop offset="1" stop-color="#e24329"/></linearGradient><linearGradient id="u" gradientUnits="userSpaceOnUse" x1="63.64594316486" x2="36.25570998721" xlink:href="#b" y1="225.78793978502" y2="237.54625410337"/><linearGradient id="v" gradientUnits="userSpaceOnUse" x1="20.57129231138" x2="17.03259274276" xlink:href="#a" y1="246.05252878879" y2="236.55473486985"/><linearGradient id="w" gradientUnits="userSpaceOnUse" x1="20.40519266669" x2="25.00699152659" xlink:href="#b" y1="240.3709432683" y2="249.7578300876"/><linearGradient id="x" gradientUnits="userSpaceOnUse" x1="27.80976824597" x2="22.12658880328" xlink:href="#b" y1="257.64089115171" y2="248.31994290175"/><linearGradient id="y" gradientUnits="userSpaceOnUse" x1="32.7362988697" x2="27.4375146877" xlink:href="#b" y1="260.96962832888" y2="255.02543416261"/><linearGradient id="z" gradientUnits="userSpaceOnUse" x1="77.73310733528" x2="71.55546134522" xlink:href="#b" y1="261.10819994084" y2="268.15271845534"/><linearGradient id="A" gradientUnits="userSpaceOnUse" x1="68.48898314714" x2="59.89087861851" xlink:href="#b" y1="259.76146518126" y2="265.3478038878"/><linearGradient id="B" gradientUnits="userSpaceOnUse" x1="37.39901743639" x2="30.07447468358" xlink:href="#b" y1="266.09194639463" y2="261.53987392282"/><linearGradient id="C" gradientUnits="userSpaceOnUse" x1="57.17182764412" x2="53.05644303583" xlink:href="#b" y1="250.55446244515" y2="252.16262037087"/><linearGradient id="D" gradientUnits="userSpaceOnUse" x1="49.04705026957" x2="40.32805670348" xlink:href="#b" y1="266.40601880371" y2="266.96611310558"/><linearGradient id="E" gradientUnits="userSpaceOnUse" x1="62.9209087967" x2="45.15476794894" xlink:href="#b" y1="260.09999433421" y2="270.484158431"/><linearGradient id="F" gradientTransform="matrix(.99620138 0 0 1.0909893 .870629 -22.22556)" gradientUnits="userSpaceOnUse" x1="66.174614" x2="42.574757" xlink:href="#b" y1="220.17625" y2="227.2428"/><linearGradient id="G" gradientTransform="matrix(.96474021 -.24838179 .24838179 .96474021 -62.233499 25.262836)" gradientUnits="userSpaceOnUse" x1="75.576019" x2="63.732681" xlink:href="#b" y1="248.97888" y2="257.66165"/><linearGradient id="H" gradientUnits="userSpaceOnUse" x1="64.59938857783" x2="74.23293485882" xlink:href="#b" y1="247.06537669385" y2="247.31937815971"/><g transform="translate(0 -191.16665)"><path d="m66.133087 230.91241 19.816035 1.18862-20.958687-8.96865z" fill="url(#p)"/><path d="m85.403866 232.05378 19.106554.8313-6.620558 4.90077z" fill="url(#c)"/><path d="m61.713176 235.37599 11.358902 26.10176-18.865191-26.58707z" fill="url(#d)"/><path d="m70.006956 235.2378 3.092355 26.31933-12.061805-27.064z" fill="url(#H)"/><path d="m65.018135 223.24295 20.628076 8.95426-11.979171-11.62363z" fill="url(#e)"/><path d="m95.489027 220.83652-10.078688 11.45763 2.26901-15.12538z" fill="url(#f)"/><path d="m97.892236 237.76867-12.422864-5.74937-37.33851 2.62017z" fill="url(#g)"/><path d="m10.225867 235.27799 20.66441-12.82149 53.269645-3.40169z" fill="url(#h)"/><path d="m104.51042 232.88508-9.054481-12.05438-9.917477 11.25933z" fill="url(#i)"/><path d="m97.093259 248.96884.796603-11.18299 6.630048-4.94285-1.23751 10.10507z" fill="url(#j)"/><path d="m87.820785 217.2944-8.58786-10.56384-10.504526 5.88032z" fill="url(#k)"/><path d="m49.975324 204.73578 19.120062 7.922 10.189104-5.91836z" fill="url(#l)"/><path d="m71.225156 216.24049-44.41341 6.44953c2.65321-.90885 42.388983-10.16867 42.388983-10.16867z" fill="url(#q)"/><path d="m71.203409 215.58657 2.524545 4.85437-46.89259 2.24771z" fill="url(#F)"/><path d="m26.811746 222.69002 23.18539-17.95124 19.29739 7.8233z" fill="url(#m)"/><path d="m87.679349 217.16877-14.086214 3.5561-4.344826-8.12233z" fill="url(#n)"/><path d="m87.764606 217.14516-14.87973 3.60213 12.652877 11.32801z" fill="url(#o)"/><path d="m66.246426 230.90425-56.2530055 11.92723 55.0691465-19.73014z" fill="url(#r)"/><path d="m48.579971 234.64421 17.75567-3.75908 19.1608 1.13981z" fill="url(#s)"/><path d="m48.517653 234.64846 24.543614 26.7853c-8.304994-8.64531-14.363432-14.8554-24.543614-26.7853z" fill="url(#t)"/><path d="m65.050618 223.13826-49.297579 10.90914-5.7596185 8.78408z" fill="url(#u)"/><path d="m48.517653 234.64846-38.5242325 8.18302-8.6705017 9.34511z" fill="url(#v)"/><path d="m3.9280168 257.98207 44.5896362-23.33361-41.9778015 15.59055z" fill="url(#w)"/><path d="m5.6075476 265.922 5.1772604-11.52804 37.732845-19.7455z" fill="url(#x)"/><path d="m18.53049 277.37124-5.880935-16.89743 35.868098-25.82535z" fill="url(#y)"/><path d="m73.061267 261.43376-3.865827 5.34344-20.677787-32.12874z" fill="url(#z)"/><path d="m65.433479 272.84578-16.915826-38.19732 21.201388 32.94202z" fill="url(#A)"/><path d="m33.277238 279.9726-12.032742-6.4681 27.273157-38.85604z" fill="url(#B)"/><path d="m66.486485 275.22333-17.968832-40.57487 11.694214 44.64784z" fill="url(#C)"/><path d="m48.517653 234.64846 2.995086 48.78239-17.479474-5.70704z" fill="url(#D)"/><path d="m48.517653 234.64846 2.833132 46.29595 9.702806 1.3783z" fill="url(#E)"/><path d="m56.776163 217.21993c9.709227-4.45517 18.341374 9.20193 23.481118 3.65335-2.240497 3.58102-7.456545 3.90672-11.092917 3.91908 0 0-5.579675-.13287-4.849001-4.81579-1.205649-1.9916-5.024255-1.95193-7.5392-2.75664z"/><path d="m65.876052 218.61214a2.955897 2.955897 0 0 0 -1.228541 2.39396 2.955897 2.955897 0 0 0 2.956132 2.95614 2.955897 2.955897 0 0 0 2.955397-2.95614 2.955897 2.955897 0 0 0 -.08806-.70599 2.4078935 2.9226846 0 0 1 -2.253058 1.90154 2.4078935 2.9226846 0 0 1 -2.407913-2.9224 2.4078935 2.9226846 0 0 1 .06605-.66711z" fill="#fff"/><path d="m91.956109 223.71512s-3.36049.84009-2.940425 2.73037c0 0 1.365196-.10499 2.940425-2.73037z"/><path d="m54.630969 235.04748 18.45354 26.44243-24.592823-26.83457z" fill="url(#G)"/></g></svg>