<?xml version="1.0" encoding="UTF-8" standalone="no"?>
<svg
   height="300"
   viewBox="0 0 300 300"
   width="300"
   version="1.1"
   id="svg2"
   sodipodi:docname="vaultwarden.svg"
   xml:space="preserve"
   inkscape:version="1.3 (0e150ed6c4, 2023-07-21)"
   xmlns:inkscape="http://www.inkscape.org/namespaces/inkscape"
   xmlns:sodipodi="http://sodipodi.sourceforge.net/DTD/sodipodi-0.dtd"
   xmlns="http://www.w3.org/2000/svg"
   xmlns:svg="http://www.w3.org/2000/svg"><defs
     id="defs2" /><sodipodi:namedview
     id="namedview2"
     pagecolor="#999999"
     bordercolor="#ff102a"
     borderopacity="0.24705882"
     inkscape:showpageshadow="false"
     inkscape:pageopacity="0.0"
     inkscape:pagecheckerboard="true"
     inkscape:deskcolor="#555555"
     inkscape:zoom="2.2250293"
     inkscape:cx="156.62715"
     inkscape:cy="169.43597"
     inkscape:window-width="1896"
     inkscape:window-height="1136"
     inkscape:window-x="0"
     inkscape:window-y="0"
     inkscape:window-maximized="1"
     inkscape:current-layer="svg2" /><filter
     id="a"
     color-interpolation-filters="sRGB"
     height="1.0403093"
     width="1.0403438"
     x="-0.020171918"
     y="-0.02015467"><feGaussianBlur
       stdDeviation="2.4391288"
       id="feGaussianBlur1" /></filter><path
     d="m 147.38472,292.50275 c -0.71737,-0.7893 -2.87127,-3.94463 -4.78646,-7.01189 -4.74543,-7.59997 -5.20415,-7.60485 -12.53869,-0.1337 -8.15461,8.30651 -9.21381,8.04727 -13.51049,-3.30676 -3.47875,-9.19268 -3.91097,-9.31847 -12.04418,-3.50523 -9.671827,6.91296 -11.288041,6.25114 -13.113252,-5.36967 -1.564433,-9.96043 -1.910275,-10.14152 -11.300295,-5.91703 -10.640885,4.78723 -11.89441,4.00033 -11.651138,-7.31391 0.148997,-6.93004 0.0205,-7.94571 -1.149265,-9.08309 -1.287689,-1.25208 -1.489604,-1.24063 -9.065379,0.51394 -7.980306,1.84828 -9.093597,1.77454 -10.659601,-0.70597 -0.50195,-0.79507 -0.193504,-3.28038 1.098046,-8.84738 1.773082,-7.6426 1.779215,-7.75904 0.479173,-9.09285 -1.18612,-1.21692 -2.087852,-1.32983 -9.079453,-1.13687 -11.309418,0.31212 -12.097878,-0.96298 -7.248839,-11.72279 4.13978,-9.18605 3.736427,-9.8544 -6.894224,-11.42373 -10.616056,-1.56715 -11.242003,-3.37669 -4.449647,-12.86355 3.82349,-5.34024 4.362554,-6.44938 3.823279,-7.86655 -0.642884,-1.68948 -1.065353,-1.91459 -9.272896,-4.9412 -9.2722753,-3.41923 -9.4558348,-5.09678 -1.397799,-12.77412 7.530785,-7.175 7.558946,-7.73875 0.601637,-12.04456 -12.2190325,-7.5623 -12.2190325,-8.47379 0,-16.03608 6.957309,-4.30583 6.929148,-4.86957 -0.601637,-12.04456 -6.4607801,-6.15554 -7.1314745,-7.88077 -4.015693,-10.32956 0.992206,-0.77979 2.044235,-1.41781 2.337846,-1.41781 0.293612,0 3.045895,-0.95845 6.116189,-2.12988 7.969593,-3.0407 8.113086,-3.73786 2.409074,-11.70463 -6.792356,-9.486842 -6.166409,-11.2964 4.449647,-12.863559 3.200843,-0.472517 6.504326,-1.112472 7.341093,-1.422129 2.709508,-1.002693 2.603858,-3.40566 -0.434555,-9.883922 -3.03618,-6.473487 -3.437153,-9.146052 -1.641422,-10.940247 0.988614,-0.987769 2.284596,-1.112979 8.900785,-0.859946 7.150641,0.273472 7.844784,0.187999 9.063657,-1.116043 1.304785,-1.395953 1.300863,-1.490877 -0.341069,-8.253051 -1.992636,-8.206538 -2.036813,-9.369805 -0.411596,-10.839344 1.620264,-1.46507 2.532519,-1.417994 10.729649,0.553695 6.712315,1.614539 6.872565,1.621525 8.163735,0.355822 1.169252,-1.146186 1.298202,-2.166497 1.149265,-9.093563 -0.139273,-6.477388 0.02331,-7.993391 0.957064,-8.926384 1.996196,-1.994488 3.622613,-1.674207 12.712839,2.503479 4.92865,2.265105 5.254973,2.325896 6.687927,1.245937 1.209388,-0.911465 1.718011,-2.481924 2.579218,-7.963936 1.841227,-11.72018 3.439004,-12.384684 13.127637,-5.459703 8.13321,5.813234 8.56543,5.687448 12.04418,-3.505228 4.29668,-11.3540342 5.35588,-11.613281 13.51049,-3.306756 7.33454,7.471142 7.79326,7.466251 12.53869,-0.133706 4.35259,-6.9708056 5.68844,-8.4469425 7.64424,-8.4469425 1.77971,0 3.14546,1.5751568 7.85912,9.0641325 4.44408,7.060649 4.9978,7.03715 12.08945,-0.513063 7.92907,-8.4417938 9.36835,-8.1106951 13.39423,3.081278 1.84346,5.124851 2.7179,6.683147 4.14297,7.382974 1.70453,0.837081 2.15797,0.634756 8.04866,-3.591449 6.36814,-4.568746 9.20433,-5.490014 10.83983,-3.521054 0.4374,0.526598 1.38912,4.415572 2.11491,8.642166 0.72579,4.226591 1.40697,7.752239 1.51373,7.834771 2.07654,1.605343 3.07277,1.451519 9.29907,-1.43583 7.16033,-3.320487 9.59086,-3.668934 11.42987,-1.638597 1.09987,1.214303 1.18338,2.207656 0.76844,9.141854 -0.45759,7.647421 -0.4382,7.79739 1.14183,8.831778 1.47095,0.962978 2.20608,0.908348 8.66466,-0.643898 11.60696,-2.789601 12.76171,-1.679385 10.03062,9.643835 -1.61034,6.676551 -1.67703,7.482406 -0.73092,8.830958 0.98455,1.403341 1.47008,1.470651 8.9361,1.238812 6.8017,-0.211211 8.07973,-0.07812 9.22907,0.961131 1.95119,1.764306 1.67442,3.565366 -1.68531,10.966698 -2.53216,5.578204 -2.90111,6.910912 -2.28646,8.258786 0.40311,0.883983 0.91456,1.609969 1.13654,1.613313 0.22198,0.0034 3.76964,0.58183 7.88369,1.285535 11.09164,1.897215 11.6639,3.404489 4.84398,12.758336 -2.44769,3.35712 -4.45034,6.49469 -4.45034,6.97234 0,1.72746 2.59496,3.38526 8.79614,5.61938 6.04894,2.17928 8.32063,3.84271 8.32063,6.0927 0,0.52911 -2.61886,3.63598 -5.81972,6.90417 -7.68376,7.84549 -7.6738,8.1499 0.42564,12.99866 10.43332,6.24594 10.47292,7.93174 0.33243,14.15752 -8.52141,5.23175 -8.56081,5.68956 -1.11263,12.93154 3.00584,2.9226 5.65025,5.89656 5.87648,6.60875 0.79616,2.50633 -1.39616,4.35088 -7.99819,6.72943 -6.22376,2.24228 -8.82078,3.89935 -8.82078,5.62826 0,0.47766 2.00265,3.61521 4.45034,6.97235 6.81992,9.35383 6.24766,10.86111 -4.84398,12.75832 -4.11405,0.70371 -7.66171,1.28219 -7.88369,1.28553 -0.22198,0.003 -0.73343,0.72933 -1.13654,1.61331 -0.61465,1.34788 -0.2457,2.68059 2.28646,8.2588 3.35973,7.40133 3.6365,9.20238 1.68531,10.96668 -1.14934,1.03926 -2.42737,1.17235 -9.22907,0.96114 -7.46602,-0.23184 -7.95155,-0.16453 -8.9361,1.23881 -0.94611,1.34856 -0.87942,2.15441 0.73092,8.83098 2.73109,11.32321 1.57634,12.43342 -10.03062,9.64381 -6.45858,-1.55224 -7.19371,-1.60687 -8.66466,-0.64389 -1.58003,1.03438 -1.59942,1.18435 -1.14183,8.83177 0.41494,6.9342 0.33143,7.92756 -0.76844,9.14187 -1.84331,2.03506 -4.27136,1.68102 -11.51795,-1.67946 -6.3529,-2.94604 -6.60591,-3.0041 -8.03956,-1.84419 -1.16194,0.94009 -1.75085,2.78471 -2.73875,8.57862 -0.69217,4.05955 -1.61808,7.81391 -2.05756,8.34301 -1.63936,1.9736 -4.47123,1.05525 -10.84359,-3.51654 -5.89069,-4.22621 -6.34413,-4.42852 -8.04866,-3.59144 -1.42507,0.69983 -2.29951,2.25812 -4.14297,7.38298 -4.02588,11.19195 -5.46516,11.52305 -13.39423,3.08126 -7.09165,-7.55022 -7.64537,-7.57372 -12.08945,-0.51306 -4.71366,7.48897 -6.07941,9.06413 -7.85912,9.06413 -0.85442,0 -2.14042,-0.64578 -2.85778,-1.43505 z M 116.7345,245.19669 C 115.85175,242.84516 103.01395,208.21333 88.20606,168.23708 73.398156,128.26083 61.4321,92.6227 61.25498,92.877274 l -2.802794,4.028456 c 0,0 3.048748,7.52189 5.810065,14.15003 2.259416,5.42339 4.108027,10.76759 4.108027,11.87602 0,3.52692 -2.964693,5.85456 -13.351092,10.48227 l -9.585384,4.27085 -0.190433,9.36589 c -0.15855,7.7983 0.09553,10.77689 1.517906,17.79585 2.752654,13.58321 8.757291,29.11835 15.875609,41.07318 3.513483,5.9007 11.305858,16.18899 12.26156,16.18899 0.437686,0 4.278253,-0.76958 8.534597,-1.71019 10.344641,-2.2861 13.257577,-2.2543 15.669932,0.17101 1.586017,1.59452 2.214507,3.49725 4.123687,12.48455 1.23889,5.83184 2.61434,10.98459 3.05657,11.45055 0.58337,0.61467 10.14757,4.58343 11.89097,4.93425 0.0909,0.0183 -0.55696,-1.89073 -1.4397,-4.24229 z m 72.28961,1.65981 4.60208,-1.76903 0.77736,-3.79336 c 3.91579,-19.1087 4.55241,-20.71958 8.67297,-21.94593 2.1897,-0.65169 4.031,-0.44464 12.43576,1.39838 l 9.86547,2.16333 3.82794,-4.26309 c 19.59902,-21.82694 27.88596,-44.21568 26.28402,-71.01118 l -0.54661,-9.14302 -10.74959,-4.77802 c -11.60397,-5.15773 -13.0718,-6.36718 -13.04115,-10.74544 0.0107,-1.53094 1.97839,-6.88802 5.2561,-14.30987 l 5.23899,-11.862832 -1.29678,-2.046371 -1.29677,-2.046366 -1.86389,5.016097 c -20.15906,54.252262 -55.44704,149.674132 -55.70566,150.633172 -0.39727,1.47316 0.04,1.38637 7.53976,-1.49647 z m -98.059694,-2.05388 c 0.941426,-0.67836 2.290608,-2.39799 2.998187,-3.82138 1.094895,-2.20253 1.169533,-2.97812 0.501139,-5.20711 -2.16717,-7.22717 -12.139513,-8.49215 -15.516062,-1.96823 -4.134919,7.98921 4.819096,16.18317 12.016736,10.99672 z m 127.693594,-0.1213 c 5.2664,-4.94328 2.85303,-13.4454 -4.19134,-14.76582 -8.8727,-1.66308 -13.53173,10.76668 -5.87672,15.67833 2.58624,1.65941 7.83485,1.1837 10.06806,-0.91251 z m -42.46342,-112.1877 c 14.23924,-40.446559 26.01013,-73.870039 26.15754,-74.274399 0.38992,-1.06945 -13.37515,-7.364812 -21.35348,-9.765877 -12.00647,-3.613325 -10.15875,-4.056613 -19.50598,4.679684 -4.49329,4.199587 -9.02895,7.870836 -10.07924,8.158331 -3.36239,0.920374 -5.56272,-0.386303 -13.65979,-8.111951 -4.36057,-4.160558 -8.28664,-7.564654 -8.72457,-7.564654 -3.23484,0 -33.383789,9.348566 -34.683532,10.754646 -0.270862,0.29302 12.028942,34.302143 27.332892,75.57583 15.30394,41.27369 28.00564,74.82807 28.22601,74.56533 0.22036,-0.26276 12.05093,-33.57037 26.29015,-74.01694 z m 79.35979,-7.19395 c 2.82652,-1.34012 4.52376,-4.26674 4.52376,-7.8005 0,-2.22469 -0.46958,-3.32382 -2.2487,-5.26352 -4.43362,-4.83377 -11.76979,-3.41321 -14.11083,2.73239 -0.87347,2.29304 -0.87661,2.99571 -0.0243,5.4395 1.76032,5.04731 6.98626,7.20293 11.86008,4.89213 z m -203.593793,-0.6846 c 6.213085,-3.21018 4.997094,-13.06954 -1.882154,-15.26061 -2.542204,-0.80971 -3.166072,-0.76483 -5.848518,0.42074 -5.834432,2.57863 -6.947525,9.32378 -2.253254,13.65429 2.753644,2.54027 6.500775,2.98523 9.983926,1.18558 z M 153.97656,47.31339 c 2.55777,-1.321547 4.08561,-4.271999 4.08561,-7.889843 0,-2.303017 -0.42912,-3.267465 -2.27388,-5.110659 -3.00485,-3.002276 -6.41814,-3.661286 -9.82199,-1.896352 -5.45403,2.827967 -6.37242,9.248331 -1.95435,13.662623 1.84477,1.843195 2.81005,2.271937 5.11504,2.271937 1.56263,0 3.74493,-0.466968 4.84957,-1.037706 z"
     fill="#ffffff"
     stroke-width="0.099996"
     id="path2"
     style="stroke:#3a4866;stroke-width:3;stroke-dasharray:none;stroke-opacity:1" /><circle
     id="path29"
     style="fill:#000000;stroke:#000000"
     cx="-486.21024"
     cy="165.23659"
     r="0.45251483" /><circle
     id="path30"
     style="fill:#000000;stroke:#000000"
     cx="-489.983"
     cy="211.93716"
     r="0.45251483" /></svg>
