<svg height="100" viewBox="0 0 100 100" width="100" xmlns="http://www.w3.org/2000/svg"><g fill-rule="evenodd" stroke-linecap="round" stroke-linejoin="round" stroke-miterlimit="50" stroke-opacity=".496678" transform="matrix(1.0688947 0 0 1.0688947 -666.78386 -157.86787)"><circle cx="670.58417" cy="194.46992" fill="#685e7a" r="46.777294" stroke-width=".191788"/><path d="m664.18945 162.44531a23.62171 23.62171 0 0 0 -23.62109 23.6211 23.62171 23.62171 0 0 0 23.62109 23.62304 23.62171 23.62171 0 0 0 11.65821-3.08593l16.23046 20.06445 8.67188-7.7207-17.35938-19.13282a23.62171 23.62171 0 0 0 4.41993-13.74804 23.62171 23.62171 0 0 0 -23.6211-23.6211zm0 7.4375a16.185091 16.185091 0 0 1 16.18555 16.1836 16.185091 16.185091 0 0 1 -16.18555 16.18554 16.185091 16.185091 0 0 1 -16.18554-16.18554 16.185091 16.185091 0 0 1 16.18554-16.1836z" fill="#fff" stroke-width=".09685"/></g></svg>